<svg width="128" height="123" viewBox="0 0 128 123" fill="none" xmlns="http://www.w3.org/2000/svg">
<path d="M123.359 102.081L112.82 104.498C110.457 105.056 108.604 106.791 108.093 109.085L105.858 118.196C104.644 123.154 98.1289 124.703 94.7436 120.799L75.6452 99.4777C74.1122 97.7423 74.9426 95.0152 77.2421 94.4574C88.5478 91.7923 98.7037 85.6563 106.177 76.9172C107.391 75.4917 109.562 75.3057 110.904 76.6073L125.084 90.3667C129.938 95.0772 128.214 100.965 123.359 102.081Z" fill="white"/>
<path d="M4.86606 102.081L15.4053 104.498C17.7686 105.056 19.621 106.791 20.132 109.085L22.3675 118.196C23.5811 123.154 30.0963 124.703 33.4816 120.799L52.58 99.4777C54.113 97.7423 53.2826 95.0152 50.9831 94.4574C39.6774 91.7923 29.5214 85.6563 22.0482 76.9172C20.8346 75.4917 18.6628 75.3057 17.3215 76.6073L3.14146 90.3667C-1.71297 95.0772 0.0116288 100.965 4.86606 102.081Z" fill="white"/>
<path d="M64.2741 0C39.5548 0 19.5623 19.3996 19.5623 43.3856C19.5623 52.3727 22.3088 60.6159 27.0355 67.4957C33.9339 77.4124 44.8564 84.4161 57.5673 86.2135C59.739 86.5854 61.9746 86.7713 64.2741 86.7713C66.5735 86.7713 68.8091 86.5854 70.9809 86.2135C83.6918 84.4161 94.6143 77.4124 101.513 67.4957C106.239 60.6159 108.986 52.3727 108.986 43.3856C108.986 19.3996 88.9933 0 64.2741 0ZM83.8195 42.0221L78.518 47.1664C77.6238 48.0341 77.1128 49.7076 77.4321 50.9471L78.9651 57.331C80.1787 62.3514 77.4321 64.3347 72.8332 61.6696L66.4458 58.0128C65.2961 57.331 63.3798 57.331 62.2301 58.0128L55.8427 61.6696C51.2438 64.2727 48.4972 62.3514 49.7108 57.331L51.2438 50.9471C51.4993 49.7695 51.0522 48.0341 50.1579 47.1664L44.7286 42.0221C41.5988 38.9851 42.6208 35.9481 46.9642 35.2663L53.7987 34.1507C54.9485 33.9648 56.2898 32.9731 56.8008 31.9814L60.5694 24.6678C62.6134 20.7012 65.9348 20.7012 67.9788 24.6678L71.7473 31.9814C72.2583 32.9731 73.5997 33.9648 74.8133 34.1507L81.6478 35.2663C85.9274 35.9481 86.9494 38.9851 83.8195 42.0221Z" fill="white"/>
</svg>
