<svg width="44" height="44" viewBox="0 0 44 44" fill="none" xmlns="http://www.w3.org/2000/svg">
<path d="M34.0243 42.1982C33.3893 42.1982 32.7543 42.0344 32.1808 41.6864L23.9668 36.8132C23.1064 36.7927 22.2461 36.7315 21.4268 36.6087C20.8737 36.5268 20.4026 36.158 20.1977 35.6257C19.9929 35.0933 20.0953 34.5201 20.464 34.0901C21.816 32.5135 22.5124 30.6299 22.5124 28.6234C22.5124 23.6685 18.1494 19.635 12.7825 19.635C10.7751 19.635 8.84962 20.188 7.23139 21.2527C6.78075 21.5394 6.22769 21.5803 5.73607 21.3551C5.26494 21.1299 4.91674 20.6792 4.85529 20.1469C4.79384 19.5736 4.75287 19.0005 4.75287 18.4067C4.75287 8.25125 13.5609 0 24.3764 0C35.1919 0 44 8.25125 44 18.4067C44 23.9758 41.419 29.0943 36.8716 32.5954L37.568 38.1647C37.7319 39.557 37.1174 40.8674 35.9498 41.625C35.3763 41.9935 34.7003 42.1982 34.0243 42.1982ZM24.356 33.7215C24.6427 33.7011 24.9295 33.7832 25.1753 33.947L33.7581 39.0451C33.9834 39.1885 34.1677 39.127 34.2906 39.0451C34.393 38.9837 34.5569 38.8199 34.516 38.5333L33.7171 32.0631C33.6556 31.4898 33.9014 30.9372 34.3521 30.6096C38.5308 27.6817 40.9274 23.2181 40.9274 18.3656C40.9274 9.90965 33.5122 3.0302 24.3764 3.0302C15.5888 3.0302 8.37849 9.41836 7.84591 17.4444C9.3822 16.8506 11.0414 16.523 12.7621 16.523C19.829 16.523 25.5645 21.9282 25.5645 28.5824C25.585 30.3842 25.1548 32.1245 24.356 33.7215Z" fill="#D05008"/>
<path d="M34.0243 42.1982C33.3893 42.1982 32.7543 42.0344 32.1808 41.6864L23.9668 36.8132C23.1064 36.7927 22.2461 36.7315 21.4268 36.6087C20.8737 36.5268 20.4026 36.158 20.1977 35.6257C19.9929 35.0933 20.0953 34.5201 20.464 34.0901C21.816 32.5135 22.5124 30.6299 22.5124 28.6234C22.5124 23.6685 18.1494 19.635 12.7825 19.635C10.7751 19.635 8.84962 20.188 7.23139 21.2527C6.78075 21.5394 6.22769 21.5803 5.73607 21.3551C5.26494 21.1299 4.91674 20.6792 4.85529 20.1469C4.79384 19.5736 4.75287 19.0005 4.75287 18.4067C4.75287 8.25125 13.5609 0 24.3764 0C35.1919 0 44 8.25125 44 18.4067C44 23.9758 41.419 29.0943 36.8716 32.5954L37.568 38.1647C37.7319 39.557 37.1174 40.8674 35.9498 41.625C35.3763 41.9935 34.7003 42.1982 34.0243 42.1982ZM24.356 33.7215C24.6427 33.7011 24.9295 33.7832 25.1753 33.947L33.7581 39.0451C33.9834 39.1885 34.1677 39.127 34.2906 39.0451C34.393 38.9837 34.5569 38.8199 34.516 38.5333L33.7171 32.0631C33.6556 31.4898 33.9014 30.9372 34.3521 30.6096C38.5308 27.6817 40.9274 23.2181 40.9274 18.3656C40.9274 9.90965 33.5122 3.0302 24.3764 3.0302C15.5888 3.0302 8.37849 9.41836 7.84591 17.4444C9.3822 16.8506 11.0414 16.523 12.7621 16.523C19.829 16.523 25.5645 21.9282 25.5645 28.5824C25.585 30.3842 25.1548 32.1245 24.356 33.7215Z" fill="white"/>
<path d="M6.80064 44C6.26806 44 5.75596 43.8567 5.28484 43.5496C4.36306 42.9558 3.87147 41.9321 3.99437 40.8469L4.40403 37.6938C1.63871 35.4416 0 32.1043 0 28.6031C0 24.6106 2.08937 20.8842 5.59211 18.6524C7.70195 17.2807 10.201 16.5436 12.8024 16.5436C19.8694 16.5436 25.6049 21.9489 25.6049 28.6031C25.6049 31.3058 24.6217 33.9675 22.8191 36.0763C20.5044 38.8814 17.0426 40.5193 13.2326 40.6422L8.23451 43.611C7.78387 43.8772 7.29225 44 6.80064 44ZM12.7819 19.6147C10.7745 19.6147 8.84901 20.1676 7.23078 21.2322C4.60885 22.9112 3.05209 25.6548 3.05209 28.6031C3.05209 31.4491 4.44502 34.0493 6.90308 35.7283C7.37421 36.0559 7.62 36.6087 7.55854 37.182L7.1079 40.6831L12.0035 37.7757C12.2493 37.6324 12.5156 37.5505 12.7819 37.5505C15.7931 37.5505 18.6404 36.2606 20.443 34.0698C21.7949 32.4728 22.5118 30.5891 22.5118 28.5826C22.5118 23.6482 18.1488 19.6147 12.7819 19.6147Z" fill="#D05008"/>
<path d="M6.80064 44C6.26806 44 5.75596 43.8567 5.28484 43.5496C4.36306 42.9558 3.87147 41.9321 3.99437 40.8469L4.40403 37.6938C1.63871 35.4416 0 32.1043 0 28.6031C0 24.6106 2.08937 20.8842 5.59211 18.6524C7.70195 17.2807 10.201 16.5436 12.8024 16.5436C19.8694 16.5436 25.6049 21.9489 25.6049 28.6031C25.6049 31.3058 24.6217 33.9675 22.8191 36.0763C20.5044 38.8814 17.0426 40.5193 13.2326 40.6422L8.23451 43.611C7.78387 43.8772 7.29225 44 6.80064 44ZM12.7819 19.6147C10.7745 19.6147 8.84901 20.1676 7.23078 21.2322C4.60885 22.9112 3.05209 25.6548 3.05209 28.6031C3.05209 31.4491 4.44502 34.0493 6.90308 35.7283C7.37421 36.0559 7.62 36.6087 7.55854 37.182L7.1079 40.6831L12.0035 37.7757C12.2493 37.6324 12.5156 37.5505 12.7819 37.5505C15.7931 37.5505 18.6404 36.2606 20.443 34.0698C21.7949 32.4728 22.5118 30.5891 22.5118 28.5826C22.5118 23.6482 18.1488 19.6147 12.7819 19.6147Z" fill="white"/>
</svg>
