<svg width="39" height="44" viewBox="0 0 39 44" fill="none" xmlns="http://www.w3.org/2000/svg">
<path d="M19.5631 39.3616C14.4323 39.3616 9.30164 38.6089 4.43521 37.1036C2.58552 36.5137 1.17624 35.3135 0.559675 33.7471C-0.0789063 32.1808 0.141294 30.4517 1.15422 28.9057L3.68652 25.0203C4.215 24.2066 4.69945 22.5793 4.69945 21.6232V15.7443C4.69945 8.17702 11.3715 2.01334 19.5631 2.01334C27.7545 2.01334 34.4266 8.17702 34.4266 15.7443V21.6232C34.4266 22.5589 34.911 24.2066 35.4395 25.0407L37.9498 28.9057C38.8967 30.3703 39.0728 32.1401 38.4342 33.7471C37.7957 35.3541 36.4084 36.5747 34.6688 37.1036C29.8244 38.6089 24.6937 39.3616 19.5631 39.3616ZM19.5631 5.06466C13.1992 5.06466 8.00246 9.84508 8.00246 15.7443V21.6232C8.00246 23.1081 7.34185 25.3051 6.52711 26.5867L3.9948 30.472C3.51036 31.2247 3.37824 32.018 3.6645 32.6893C3.92874 33.381 4.58935 33.9099 5.49217 34.1946C14.6966 37.0425 24.4515 37.0425 33.6559 34.1946C34.4486 33.9505 35.0652 33.4013 35.3514 32.669C35.6377 31.9367 35.5716 31.1433 35.1312 30.472L32.5989 26.5867C31.7622 25.2644 31.1236 23.0878 31.1236 21.6028V15.7443C31.1236 9.84508 25.9489 5.06466 19.5631 5.06466Z" fill="#D05008"/>
<path d="M19.5631 39.3616C14.4323 39.3616 9.30164 38.6089 4.43521 37.1036C2.58552 36.5137 1.17624 35.3135 0.559675 33.7471C-0.0789063 32.1808 0.141294 30.4517 1.15422 28.9057L3.68652 25.0203C4.215 24.2066 4.69945 22.5793 4.69945 21.6232V15.7443C4.69945 8.17702 11.3715 2.01334 19.5631 2.01334C27.7545 2.01334 34.4266 8.17702 34.4266 15.7443V21.6232C34.4266 22.5589 34.911 24.2066 35.4395 25.0407L37.9498 28.9057C38.8967 30.3703 39.0728 32.1401 38.4342 33.7471C37.7957 35.3541 36.4084 36.5747 34.6688 37.1036C29.8244 38.6089 24.6937 39.3616 19.5631 39.3616ZM19.5631 5.06466C13.1992 5.06466 8.00246 9.84508 8.00246 15.7443V21.6232C8.00246 23.1081 7.34185 25.3051 6.52711 26.5867L3.9948 30.472C3.51036 31.2247 3.37824 32.018 3.6645 32.6893C3.92874 33.381 4.58935 33.9099 5.49217 34.1946C14.6966 37.0425 24.4515 37.0425 33.6559 34.1946C34.4486 33.9505 35.0652 33.4013 35.3514 32.669C35.6377 31.9367 35.5716 31.1433 35.1312 30.472L32.5989 26.5867C31.7622 25.2644 31.1236 23.0878 31.1236 21.6028V15.7443C31.1236 9.84508 25.9489 5.06466 19.5631 5.06466Z" fill="white"/>
<path d="M23.6581 5.61445C23.504 5.61445 23.3498 5.5941 23.1957 5.55342C22.5571 5.39068 21.9405 5.26863 21.346 5.18726C19.4743 4.96349 17.6687 5.08555 15.9731 5.55342C15.3565 5.7365 14.696 5.55342 14.2776 5.12623C13.8592 4.69905 13.7271 4.08878 13.9693 3.53954C14.8722 1.40361 17.0741 0 19.5844 0C22.0947 0 24.2967 1.38327 25.1995 3.53954C25.4197 4.08878 25.3096 4.69905 24.8912 5.12623C24.5609 5.45171 24.0985 5.61445 23.6581 5.61445Z" fill="#D05008"/>
<path d="M23.6581 5.61445C23.504 5.61445 23.3498 5.5941 23.1957 5.55342C22.5571 5.39068 21.9405 5.26863 21.346 5.18726C19.4743 4.96349 17.6687 5.08555 15.9731 5.55342C15.3565 5.7365 14.696 5.55342 14.2776 5.12623C13.8592 4.69905 13.7271 4.08878 13.9693 3.53954C14.8722 1.40361 17.0741 0 19.5844 0C22.0947 0 24.2967 1.38327 25.1995 3.53954C25.4197 4.08878 25.3096 4.69905 24.8912 5.12623C24.5609 5.45171 24.0985 5.61445 23.6581 5.61445Z" fill="white"/>
<path d="M19.5622 44C17.3822 44 15.2683 43.1863 13.727 41.7624C12.1855 40.3384 11.3047 38.3856 11.3047 36.3717H14.6078C14.6078 37.5719 15.1362 38.7517 16.061 39.6061C16.9859 40.4605 18.263 40.9487 19.5622 40.9487C22.2927 40.9487 24.5167 38.8941 24.5167 36.3717H27.8197C27.8197 40.5825 24.1204 44 19.5622 44Z" fill="#D05008"/>
<path d="M19.5622 44C17.3822 44 15.2683 43.1863 13.727 41.7624C12.1855 40.3384 11.3047 38.3856 11.3047 36.3717H14.6078C14.6078 37.5719 15.1362 38.7517 16.061 39.6061C16.9859 40.4605 18.263 40.9487 19.5622 40.9487C22.2927 40.9487 24.5167 38.8941 24.5167 36.3717H27.8197C27.8197 40.5825 24.1204 44 19.5622 44Z" fill="white"/>
</svg>
