<svg width="30" height="30" viewBox="0 0 30 30" fill="none" xmlns="http://www.w3.org/2000/svg">
<path d="M11.4149 2.92808e-05C17.7193 2.92808e-05 22.8299 5.11069 22.8299 11.415C22.8299 17.7192 17.7193 22.8299 11.415 22.8299C5.11063 22.8299 0 17.7193 0 11.415C0.00749999 5.11371 5.11368 0.00749999 11.4143 0H11.415L11.4149 2.92808e-05ZM11.4149 20.1876C16.26 20.1876 20.1876 16.26 20.1876 11.415C20.1876 6.56994 16.26 2.6424 11.4149 2.6424C6.56996 2.6424 2.64234 6.57002 2.64234 11.415C2.64835 16.2576 6.5724 20.1816 11.4144 20.1876H11.415L11.4149 20.1876ZM28.1279 30L17.4171 19.2853L19.2852 17.4171L30 28.1279L28.1279 30Z" fill="white"/>
</svg>
